<svg xmlns="http://www.w3.org/2000/svg" width="103" height="98" shape-rendering="geometricPrecision" image-rendering="optimizeQuality" fill-rule="evenodd" viewBox="0 0 1386 1312" xmlns:v="https://vecta.io/nano"><path fill-rule="nonzero" d="M1386 293v363 363c0 94-87 172-228 223h0c-121 44-285 70-465 70s-345-26-465-70h0C87 1191 0 1113 0 1019V656 293c0-93 87-172 228-223h0C348 27 513 0 693 0s344 27 465 70h0c141 51 228 130 228 223zM135 474v182c0 31 53 66 138 97h0c106 38 255 62 420 62s313-24 419-62h0c86-31 139-66 139-97V474c-27 16-59 30-93 42h0c-121 44-285 71-465 71s-345-27-465-71h0c-35-12-66-26-93-42zm977-278c-106-38-254-61-419-61s-314 23-420 61v1c-85 31-138 65-138 96s53 66 138 97h0c106 38 255 62 420 62s313-24 419-62h0c86-31 139-66 139-97s-53-65-139-96v-1zM135 837v182c0 31 53 66 138 97h0c106 38 255 62 420 62s313-24 419-62h0c86-31 139-66 139-97V837c-27 16-59 30-93 42h0c-121 44-285 71-465 71s-345-27-465-71h0c-35-12-66-26-93-42z"/></svg>