<svg xmlns="http://www.w3.org/2000/svg" width="111" height="109" shape-rendering="geometricPrecision" image-rendering="optimizeQuality" fill-rule="evenodd" viewBox="0 0 943 924" xmlns:v="https://vecta.io/nano"><path d="M610 355c-27 0-49 21-49 48v220 3c1 23 12 46 33 60l64 41 127 82 17 11c44 23 98 9 126-33 7-10 11-21 13-32 1-3 2-7 2-11v-22-224-52-22c-3-24-15-48-35-64l-18-12-44-29-138-89-30-20-18-12c-1 0-1 0-2-1-8-4-17-6-26-8-17-3-35-1-51 6-7 2-14 6-20 10-2 1-4 3-6 4L318 447l-9 9-7 6c-2 3-4 5-5 8-8 12-12 24-15 37v5 22 195 98l-82-54-21-13-82-53v-98-180-98l69-69 96-95 69-69 82 53 61 40v-1 1c23 14 53 8 67-15 15-22 8-52-14-67L393 22l-18-12c-18-9-37-12-56-9-18 2-35 9-49 20l-9 9-7 7L36 255l-6 6-9 10c-2 2-4 5-6 7-4 6-7 13-10 20-2 7-4 15-5 22v22 302 52 22c3 24 15 48 35 64l18 12 44 28 123 80 18 12c14 7 29 10 44 10 17 0 35-5 51-14 12-7 22-18 30-30 9-13 14-28 16-42v-22-195-98l69-69 99-99 14-14 55-55 42 27 40 26 66 43 82 53v97 104 97l-82-53-59-38-47-31v-55-153c0-27-22-48-48-48z"/></svg>