<svg xmlns="http://www.w3.org/2000/svg" width="107" height="94" shape-rendering="geometricPrecision" image-rendering="optimizeQuality" fill-rule="evenodd" viewBox="0 0 1114 977" xmlns:v="https://vecta.io/nano"><path d="M73 778c65-99 146-130 245-138v57c0 21 8 41 23 56 31 30 83 30 113 0l250-246c8-8 12-18 12-29 0-10-4-20-12-28L454 203c-30-30-83-30-113 0-15 15-23 35-23 57v67C134 364 0 526 0 717v40c0 17 12 33 28 38 4 1 8 1 12 1 13 0 25-6 33-18zm284-220c-88 3-184 16-269 85 31-128 138-227 274-242 20-2 36-2 36-2V260l221 218-221 219V558h-41zM137 321c32-18 67-33 104-45v-98c0-21 8-39 22-52 13-13 31-22 51-22h622c21 0 39 9 52 22s22 31 22 52v622c0 20-9 38-22 51-13 14-31 22-52 22H484 345h-31c-20 0-38-8-51-22-14-13-22-31-22-51v-90c-37 7-71 16-104 30v60c0 49 20 93 52 125s76 52 125 52h622c49 0 94-20 126-52s52-76 52-125V178c0-49-20-94-52-126S985 0 936 0H314c-49 0-93 20-125 52s-52 77-52 126v143z"/></svg>