<svg xmlns="http://www.w3.org/2000/svg" xmlns:xlink="http://www.w3.org/1999/xlink" width="253" height="170" shape-rendering="geometricPrecision" image-rendering="optimizeQuality" fill-rule="evenodd" viewBox="0 0 32724 21927" xmlns:v="https://vecta.io/nano"><style><![CDATA[.B{fill-opacity:.1}.C{fill:#0060fa}.D{fill-opacity:.04}.E{fill:#3f3d56}.F{fill-opacity:.2}.G{fill:#fda8a8}.H{fill:#46455b}.I{fill:#bbbdc8}.J{fill:#a1616a}]]></style><defs><linearGradient id="A" gradientUnits="userSpaceOnUse" x1="11638.8" y1="19975.9" x2="11638.8" y2="5213.32"><stop offset="0" stop-opacity=".25" stop-color="gray"/><stop offset=".54" stop-opacity=".12" stop-color="gray"/><stop offset="1" stop-opacity=".1" stop-color="gray"/></linearGradient><linearGradient id="B" gradientUnits="userSpaceOnUse" x1="19671.9" y1="18102.2" x2="19671.9" y2="5361.04"><stop offset="0" stop-opacity=".25" stop-color="gray"/><stop offset=".54" stop-opacity=".12" stop-color="gray"/><stop offset="1" stop-opacity=".1" stop-color="gray"/></linearGradient><path id="C" d="M12470 7444c-8 106-45 207-59 312-15 115-2 233-9 349-8 117-41 239-130 315 514 44 1023 155 1510 327-147-182-151-435-148-668 5-345 11-696 124-1021-178-40-360-60-542-60-161 0-322 16-479 47-73 14-295 5-328 74-24 50 66 249 61 325z"/><path id="D" d="M13079 19977c34 27 74 46 116 56l317 100c117 38 248 86 298 199 56 127-24 281-143 354-118 72-263 83-402 88-16-2-31-8-45-16-60-41-8-132 44-181 204-194 426-397 704-441 146-24 293-15 438-49 104-26 203-69 307-95-2062-167-1772-184-1634-15z"/><path id="E" d="M11488 13137c-82 217-125 448-125 681a1916.3 1916.3 0 0 0 98 605c-106-12-151 131-149 237 4 148 27 296 67 438 20 68 43 137 36 206-11 98-80 178-116 269-76 192 2 407 15 614 12 193-34 385-71 576-1 123-9 246-24 367-28 172-91 337-103 510-17 270 97 535 86 805-12 318-194 626-131 938 9 44 34 95 79 96 456 6 882-121 1333-55 46-1044 91-2093 297-3118 181-912 489-1814 460-2745-17-532-143-1053-220-1580-668 112-1240 544-1532 1156h0z"/><path id="F" d="M18636 20516c67 60 169 59 260 52l413-30c329-24 668-52 958-208 39-447 128-891 265-1318 182-571 454-1132 450-1729v-43c-5-187-38-372-58-558-34-311-30-625-28-938v-42c0-109 9-217 26-324 19-98 91-197 47-283-85-168-393-230-559-236-223-8-443 51-658 109-66 18-135 37-184 83-67 62-86 160-88 251-12 404 221 779 239 1182 3 73 0 152 42 212 28 33 59 64 91 92 91 100 94 250 87 385a4448.8 4448.8 0 0 1-9 163c-125 106-259 202-399 286-94 55-195 109-259 197s-716 2622-636 2697z"/><path id="G" d="M18636 20516c67 60 169 59 260 52l413-30c329-24 668-52 958-208 39-447 128-891 265-1318 182-571 454-1132 450-1729-124 106-258 202-398 285-94 56-195 109-259 198-64 88-1769 2675-1689 2750z"/><path id="H" d="M19549 20388c99-35 195-81 285-136l456-257c41-27 87-45 135-55l55 407c13 100 21 217-55 284-27 21-57 37-90 47-166 57-344 59-519 64-538 17-1081 80-1611-14-65-12-135-31-174-82-45-60-32-148 11-209 47-59 107-106 175-137 135-72 275-134 415-196 6-4 13-6 21-6 3 0 5 0 8 1 14 4 18 21 21 35 25 99 105 178 196 224 1 0 470 94 671 30z"/></defs><g class="E"><path d="M11328 20155c16 67 38 133 65 197l1275-475c-3-17-7-36-12-55-43-190-135-366-268-509-171-182-393-269-608-216-216 54-372 237-443 478-28 100-43 203-43 307 0 92 12 184 34 273h0z" class="D"/><path d="M12400 18751c-110-494-499-827-868-745s-578 550-468 1043c110 494 499 828 868 745 369-82 579-549 468-1043z" class="D"/><path d="M12141 17662c-110-494-498-828-868-745-369 82-578 549-468 1043s499 827 868 745c369-83 579-550 468-1043z" class="F"/><path d="M11882 16573c-110-494-499-827-868-745-369 83-579 550-469 1043 111 494 499 828 868 745 369-82 579-549 469-1043z" class="D"/><path d="M11622 15484c-110-494-499-827-868-745-369 83-579 550-468 1044 110 493 499 827 868 744 369-82 579-549 468-1043z" class="D"/></g><path d="M11666 7559c63-141 116-287 159-435l-1815 143 1892-458c-98-416-276-812-521-1162l-2248 544 1917-2343c-782-836-1966-1233-3142-938-1757 439-2834 2255-2405 4056 170 726 579 1377 1161 1844-98 220-173 451-222 685l2553 640-2614-227c-194 437-295 910-295 1389a3399.8 3399.8 0 0 0 95 797c429 1800 2201 2903 3958 2464 1758-439 2835-2255 2406-4055 194-437 295-911 295-1389a3399.8 3399.8 0 0 0-95-797c-305-322-673-580-1079-758h0z" class="C F"/><path fill-opacity=".02" d="M6463 10996c-194 436-295 910-295 1388 0 268 32 536 94 797 429 1801 2202 2904 3959 2464 1757-439 2834-2254 2406-4055-171-727-581-1376-1162-1844 1456 1183-5089 885-5002 1250z"/><g class="E"><path d="M19484 19823c-9 64-14 130-14 195 0 14 1 28 1 42l1588 53c4-20 7-42 10-63 10-64 15-128 15-192 0-159-30-317-89-465-109-267-314-458-569-495-256-37-505 89-685 314-138 177-227 388-257 611h0z" class="D"/><path d="M20609 17631c-438-63-859 351-942 924-82 573 206 1089 644 1152s859-351 942-924c82-573-206-1089-644-1152z" class="D"/><path d="M20791 16363c-437-63-859 351-942 924-82 573 206 1088 644 1151s860-350 942-923-206-1089-644-1152z" class="F"/><path d="M20973 15095c-437-63-859 351-941 924-83 573 205 1088 643 1151s860-350 942-923-206-1089-644-1152z" class="D"/><path d="M21156 13827c-438-63-859 351-942 924-82 573 206 1088 644 1151s859-351 942-924c82-573-206-1088-644-1151z" class="F"/></g><path d="M25220 6612c128-122 248-254 358-393l-2034-639 2250 340c401-621 615-1345 615-2085 0-307-37-614-110-913l-3247 1133 3081-1649C25550 953 24140 0 22574 0c-2118 0-3836 1718-3836 3836 0 673 177 1335 514 1918-199 190-377 402-531 631l2501 1792-2743-1381c-273 537-415 1132-415 1735 0 673 178 1336 514 1918-760 724-1189 1727-1189 2776 0 2118 1717 3836 3835 3836s3836-1718 3836-3836c0-673-178-1335-515-1918 759-724 1189-1728 1189-2777 0-673-177-1335-514-1918h0z" class="C F"/><path fill-opacity=".02" d="M18102 7985c-26 181-39 366-39 549 0 672 177 1334 515 1915-760 724-1189 1727-1189 2776 0 2118 1717 3836 3835 3836s3836-1718 3836-3836c0-673-178-1335-515-1918 602-573-6381-3748-6443-3322z"/><g class="C"><path d="M32724 20989c0-518-7326-937-16362-937-9037 0-16362 419-16362 937s7325 938 16362 938c9036 0 16362-420 16362-938z" class="B"/><ellipse cx="27059" cy="20464" rx="765" ry="147"/></g><g class="E"><ellipse cx="27046" cy="20402" rx="89" ry="117"/><ellipse cx="27046" cy="20259" rx="89" ry="117"/><ellipse cx="27046" cy="20117" rx="89" ry="117"/><ellipse cx="27046" cy="19974" rx="89" ry="117"/><ellipse cx="27046" cy="19831" rx="89" ry="117"/><ellipse cx="27046" cy="19689" rx="89" ry="117"/><ellipse cx="27046" cy="19546" rx="89" ry="117"/></g><path d="M27380 18571c12-15 23-32 33-49l-234-38 253 2a427.6 427.6 0 0 0 39-179c0-55-11-109-31-160l-340 177 314-231c-19 24-36 50-49 78l302 158-323-109c-93-67-204-103-318-103-299 0-542 243-542 542 0 174 84 338 225 440 59-75 91-168 91-264s-32-189-91-264h671z" class="C"/><path d="M26617 18835c-59 75-91 168-91 264 0 235 191 426 427 426s427-191 427-426c0-96-33-189-92-264 149 191-671-48-671 0z" class="B"/><ellipse cx="9487" cy="21599" rx="1022" ry="197" class="C"/><g class="E"><ellipse cx="9470" cy="21516" rx="119" ry="156"/><ellipse cx="9470" cy="21325" rx="119" ry="156"/><ellipse cx="9470" cy="21135" rx="119" ry="156"/><ellipse cx="9470" cy="20945" rx="119" ry="156"/><ellipse cx="9470" cy="20754" rx="119" ry="156"/><ellipse cx="9470" cy="20564" rx="119" ry="156"/><ellipse cx="9470" cy="20373" rx="119" ry="156"/></g><path d="M9916 19070c16-21 31-43 44-65l-312-52 338 3c34-75 52-156 52-238a577.6 577.6 0 0 0-41-214l-454 235 418-306c-25 33-47 68-65 104l406 212-433-145c79-100 122-225 122-353 0-127-43-251-122-352l47 1171z" class="C"/><path d="M8898 19422c-79 101-122 225-122 353 0 314 255 570 570 570s570-256 570-570c0-128-43-252-122-353 198 256-896-63-896 0z" class="B"/><path fill="url(#A)" d="M14870 12942c-78-403-164-808-178-1218-9-242 8-488-23-730-15-118-42-235-69-351l-107-466c100-141 183-293 246-454 28-72 52-149 41-226-22-148-164-245-297-317-80-44-165-86-257-93-8-45-13-90-13-136 0-75 12-150 35-222-79-36-159-69-239-101-9-80-13-161-13-242l1-73 11-380c441-161 735-578 738-1047v-39c75-135 114-287 114-442 0-86-12-173-36-256-89-302-321-551-600-705s-603-219-923-231c-113 28-223 69-327 121-160 74-321 155-441 282-208 222-254 548-232 847 30 393 162 774 314 1140 50 121 104 243 187 347 64 79 176 84 265 28-5 70-7 141-7 212l1 78c-165-5-325 22-456 114-61 44-118 112-105 185 83 2 153 64 165 146 7 65-26 126-57 182l-41 75c-130 139-264 313-275 486a657.2 657.2 0 0 0-64 9c-118 22-235 62-351 92l-838 221-920-176-333 88c-211 56-427 113-615 225s-347 287-385 499c-19 105-7 215-30 319 0 5-2 10-3 14-19 66-45 130-77 191-188 396-322 827-297 1263 16 268 91 529 164 786l228 791c102 44 212 67 323 67a837.1 837.1 0 0 0 70-3 1841.4 1841.4 0 0 0 107-12c260-41 502-167 725-308 92-58 183-120 272-185 11 101 31 202 60 299 20 68 44 137 36 207-11 97-81 177-118 269-78 192 2 408 15 614 13 194-35 387-73 578 0 122-8 245-24 367-28 171-94 337-105 511-18 270 99 535 88 805-12 318-199 627-134 938 8 39 30 84 66 94l-17 16c-54 50-106 141-45 181 14 9 30 14 46 16 94 20 188 38 283 54v21c0 81 11 161 33 238 17 13 34 24 52 34-13 36-12 71 19 91 656 135 1325 204 1995 204 124 0 252-4 375-7 142-6 291-16 412-89 121-72 203-227 145-354-51-113-184-161-304-199l-141-43c20-37 30-77 30-119 0-32-6-64-18-93-51-112-185-161-305-199l-324-100a306.2 306.2 0 0 1-118-56c135-48 277-72 420-72 692 0 1253 561 1253 1253 0 529-333 1002-832 1180l-2-73c0-44 2-89 6-133l91-1095c21-248 40-501-17-744-24-98-61-199-38-297 35-161 205-251 320-370 174-181 228-439 268-685 363-102 738-163 1114-179 64-3 96-33 115-93 20-60-14-3303-25-3365zm-3014 3690c3-10 5-21 7-31l25 32-32-1z"/><use xlink:href="#C" class="J"/><use xlink:href="#C" class="B"/><use xlink:href="#D" class="H"/><use xlink:href="#D" class="B"/><use xlink:href="#E" class="I"/><use xlink:href="#E" class="B"/><path d="M13503 20431c34 26 73 45 115 55l317 101c118 38 248 86 298 198 56 128-24 282-142 354-119 73-264 83-403 89-15-3-31-8-44-16-61-41-9-132 43-182 205-193 427-396 704-441 146-24 293-14 438-49 105-25 203-68 307-94-2062-168-1772-185-1633-15z" class="H"/><path d="M11645 13167c-116 151-151 351-135 540 15 189 79 371 142 550-83 77-66 209-55 321 40 418-106 835-85 1254 9 177 48 351 57 527 10 193-15 385-38 577-143 1219-227 2467-240 3693 0 114-2 230 30 339 220 161 496 183 763 123 266-61 509-196 747-329 34-26 60-62 73-103 25-121-143-176-239-254-141-114-139-325-124-506l87-1093c20-248 40-500-16-742-23-98-59-199-38-298 35-160 201-250 313-369 171-181 224-439 263-684 322-1199 488-2438 488-3681v-72c-223 77-486 35-721 53-234 18-467 97-704 103-198 4-446-105-568 51z" class="I"/><circle cx="13247" cy="6654" r="1119" class="J"/><path d="M13879 8494c-358-163-733-294-1116-385-270-64-579-103-805 59-60 43-115 111-102 184a169.1 169.1 0 0 1 161 146c6 65-25 126-56 182l-261 484c-50 87-93 178-129 272-52 154-64 318-75 480l-30 439c-19 277-38 555-13 831 19 209 62 418 33 625-24 167-94 323-134 487-75 308-41 647-185 930 37-17 77-26 118-26 23 0 46 3 69 9 438 80 783 426 1208 558 107-156 253-272 373-418 89-109 148-240 171-379 91 121 168 215 222 356 10 32 27 63 49 88 57 56 151 34 227 11 375-113 764-179 1155-195 63-3 93-33 113-93s9-125-3-186c-75-404-160-807-173-1217-9-242 8-487-23-729-15-118-41-234-67-350l-216-960c-12-54-70-89-94-138-99-201-289-346-387-547-42-94-64-195-64-298 0-75 11-149 34-220h0z" class="H"/><path d="M12309 7102c80-39 131-119 131-208a243.3 243.3 0 0 0-3-38l106-22 3-369c157-87 372-21 520-123 83-58 126-157 176-245 51-87 127-176 228-183 106-53 194-136 255-238l53 302c0 19 8 36 22 50 27 20 64-6 89-31l137-134c136 266 207 561 207 860 0 22 0 45-1 67 225-219 295-569 209-871-87-301-313-550-586-704s-589-219-902-231c-111 28-219 69-320 121-157 74-315 155-431 282-204 221-249 546-227 846 30 394 158 773 307 1138 49 121 101 244 183 347 122 155 423 26 385-280-341-199-541-115-541-336z" class="E"/><path d="M12732 13092c-377 772-957 1426-1677 1894-217 140-453 266-708 307-34 6-69 9-105 12-21 1-43 2-64 2-110 0-219-23-319-67-73-179-135-365-183-553l-222-790c-72-258-145-519-160-787-24-435 106-866 290-1261 31-61 56-125 75-191 0-4 2-9 3-14 22-104 11-213 30-318 37-212 193-388 377-499 183-112 393-169 601-225l325-87 201-54 819-221c114-30 228-70 344-90 128-24 127-12 137 114 19 228 13 452 61 678 45 216 126 424 186 635 153 535 179 1097 299 1640 27 124 66 255 165 333 114 90 306 113 336 255-755-836-783-771-811-713z" class="C"/><path d="M10348 15291c-35 6-70 10-105 13l-67 2c-109 0-217-22-317-66-73-179-135-365-183-553l-222-790c-72-258-145-519-160-787-24-435 106-866 290-1261 31-61 56-125 75-191 0-4 2-9 3-14 494 87 1086 1031 1391 2269-541 26-532 878-705 1378zm892-3255l-83 14c-85-223-170-446-269-664-52-113-108-225-151-342-164-449-136-983-439-1353-21-27-46-52-73-74l201-54c177 278 302 587 368 910 32 158 51 320 104 471a3206 3206 0 0 0 155 337c115 236 201 493 187 755z" class="B"/><path d="M12044 8628c217-186 514-288 795-242 166 27 320 102 469 182 289 154 574 331 783 583 39 81 70 167 90 254 74 342-107 682-281 985l-27 1102c-154 268-310 538-510 773-93 108-195 208-296 308l-445 439h-3c-19 0-37-7-49-21l-147-117c135-93 262-200 376-318 192-199 350-428 507-656l490-710c143-207 292-436 276-688-7-121-53-234-100-345-84-198-176-392-274-583-111-215-232-426-391-607-160-182-361-333-593-399a500.7 500.7 0 0 0-154-24c-20 0-41 1-61 4-159 26-272 163-373 290l-307 393c-69 89-134 193-138 23-37-221 207-470 363-626z" class="C"/><path d="M12139 11281c60 233 149 497 373 585 159 63 345 12 482-90 138-103 235-247 325-394 75-131 159-258 250-379 179-225 423-403 544-665 36-78 60-162 101-237 139-172 251-366 330-573 28-72 52-149 41-226-22-147-161-244-291-316-79-44-161-87-251-93-131-11-260 60-341 164-78 107-121 236-125 368-9 161 23 329-30 481-170 227-380 422-620 573v-36a1095.7 1095.7 0 0 0-41-296c-23-59-474 0-533 9-116 17-341 31-414 141-73 111 18 297 47 409l153 575z" class="J"/><path d="M12128 8739c-67 56-130 117-187 182-134 162-200 372-216 582-17 209 11 420 47 627 33 186 72 371 116 554 13-138 124-253 254-303s272-44 411-24c177 26 351 77 516 149l63-894c-40-226-176-424-373-543-245-510-414-520-631-330z" class="H"/><path fill="url(#B)" d="M23553 13091c-29-242-99-479-209-697-66-133-148-260-190-403-34-116-41-238-68-355-27-118-75-230-114-345-274-817-68-1710-156-2566-33-316-130-662-404-827-162-97-358-113-549-121l-88-4-140-7c-203-10-407-17-605 25-242 53-528 224-605 471-41-22-84-41-122-59 143-35 282-89 413-159 303-176 373-690 434-1034 62-344 6-699-97-1034a1194.2 1194.2 0 0 0-1044-615 1193.5 1193.5 0 0 0-654 195c-283 185-545 454-760 714-30 35-157 162-115 215 24 30 102 6 183-30 1 396 210 763 552 965l30 278v2l6 279-2 198c-125 141-279 256-451 335 142 24 278-9 409-66-21 74-57 143-105 204 36-13 72-25 108-37-76 113-143 232-199 356v1c-25 56-48 114-69 172v4c-20 58-38 117-53 177h0c-7 28-14 57-20 86v6c-12 59-22 117-30 176v13c-4 27-7 55-9 83v4l-5 89v11 76 17c0 57 4 114 9 171 0 7 0 14 2 21 3 23 5 47 9 70 0 6 0 11 2 16 4 28 8 56 14 84 0 6 2 13 3 19l14 66 6 23 21 84c5 15 9 30 14 47-203 225-485 364-788 387l-165 6-1062 48c-44-170-194-269-384-292-30-3-60-5-91-5h0c-48 27-91 65-125 110-11 15-21 30-30 44v-91c0-8-7-15-14-15h-1-30c-8 0-14 7-14 15v185h-7-10c-20 2-39 4-58 8-206 38-357 170-357 393 9 69 25 138 47 204 21 65 48 137 109 169 32 15 67 23 103 23 5 0 11-1 16-1 336 0 655-155 989-181 207-17 415 15 622 9 31 0 61-3 91-6-283 1405-627 2828-447 4247 12 94 30 196 100 260 94 86 238 72 363 61 10-2 21-5 30-9l9-3c6-3 12-5 18-8l9-4 15-9c2-2 5-4 7-6 5-3 10-7 15-12l4-3c6-6 11-12 16-18l4-5c3-5 6-10 9-14 2-3 3-5 5-8 1-2 4-9 7-13 2-5 2-6 3-8 1-3 4-10 6-16 2-5 0-4 2-7s4-15 6-23v-5c0-6 2-13 3-19s0-7 0-10v-15-11-14-27-10h0c0-27-3-54-6-80 22 6 44 11 66 14h0c19 3 39 5 58 5h5 3c10 0 20 0 30-3h0c9-1 18-3 27-5h3c8-2 16-5 23-9l4-2 18-12 3-2 15-18 2-5c5-7 9-15 11-23 17-58-22-124 41-178 60 194 121 388 131 589 3 73 0 151 43 212 28 33 58 64 91 92 92 100 94 251 88 387l-10 164c-73 38-142 84-205 136a129.3 129.3 0 0 1-7-21c-4-14-8-30-22-35-3-1-6-1-9-1-7 0-15 2-21 6-142 62-284 124-420 197-69 32-130 79-177 137-44 61-57 152-12 212 40 53 111 71 177 82 84 15 168 26 252 34-43 25-81 59-111 99-44 60-57 151-12 211 40 53 111 71 177 83 536 94 1086 30 1630 14 177-6 358-7 525-64 33-10 64-26 91-48 76-67 69-185 55-285l-55-409c-8 0-16 3-24 4 46-383 131-763 249-1131 184-573 459-1138 455-1737v-44c-5-188-38-373-60-560-34-313-30-628-28-943-1-13-1-29-1-43 0-108 9-217 26-325 0-4 2-8 3-12l502-13a106.2 106.2 0 0 0 64-98c0-11-2-21-5-32 214 97 500-35 564-260v-2-2c2-15 3-30 4-45v-7h0c-663 111-1149 686-1149 1358 0 760 617 1377 1378 1377 76 0 153-6 229-19-103-291-267-556-420-825-80-138-156-279-231-420l66 84c23 34 53 64 88 85 123 63 251-64 376-123 165-78 359-32 541-19 183 13 403-34 468-203 13-43 20-87 20-131 0-28-3-55-8-83h0zm-3149-4545c0 65 4 130 9 196-61-100-132-194-212-281l203 85z"/><path fill="#99d55c" d="M16453 10548c-13 54-36 106-69 151-52 72-107 121-123 109-15-12 138-189 192-260z"/><path d="M16459 10553c-9 40-26 78-50 112-40 53-81 91-91 81-10-9 102-140 141-193z" class="B"/><path fill="#f6987e" d="M16379 10488h30c8 0 15 6 15 14v343h-58v-343c0-7 6-13 13-14z"/><path fill="#fc4a4a" d="M16906 11087c0 267-217 484-484 484s-484-217-484-484c0-222 149-353 353-392h1c30 0 60 2 90 6 355 16 524 149 524 386z"/><path d="M16513 10689c-9 17-56 30-114 30 43-8 86-12 129-12h3l-18-18h0zm-10 870c-267 0-484-217-484-484 0-218 144-348 342-389a786.8 786.8 0 0 0-70 9c-204 39-353 170-353 392h1c36 0 73-5 108-13 474 485 466 485 456 485z" class="B"/><use xlink:href="#F" class="G"/><use xlink:href="#F" class="B"/><use xlink:href="#G" fill="#eeeff3"/><use xlink:href="#G" class="B"/><use xlink:href="#H" class="I"/><use xlink:href="#H" class="B"/><path d="M18938 20939c67 61 170 59 260 53l414-31c328-24 668-51 958-207 39-448 128-892 265-1319 181-570 453-1132 450-1729v-43c-5-187-38-372-59-558-33-311-30-625-27-937v-43c0-108 8-217 25-323 19-99 91-197 47-284-85-168-393-229-559-235-223-8-442 50-658 108-66 18-134 37-184 83-67 63-86 160-88 251-12 404 221 780 239 1183 4 72 0 151 43 212 28 32 58 64 91 92 90 99 93 249 87 384l-10 164c-124 106-258 202-399 285-94 56-194 109-258 197-65 89-716 2623-637 2697z" class="G"/><path fill="#eeeff3" d="M18938 20939c67 61 170 59 260 53l414-31c328-24 668-51 958-207 39-448 128-892 265-1319 181-570 453-1132 450-1729-124 107-258 203-399 286-94 55-194 109-259 197-64 88-1768 2676-1689 2750z"/><path d="M19852 20812c99-36 195-82 285-137l456-257c41-26 87-45 135-54l54 406c14 100 21 218-54 284-27 22-58 38-91 48-165 57-344 58-519 63-538 18-1081 81-1611-14-65-11-135-30-174-82-44-60-31-148 12-209 47-58 107-105 175-136 134-73 275-135 415-197 6-4 13-5 20-5h8c14 5 18 22 22 36 24 99 104 177 195 224 1 0 471 94 672 30z" class="I"/><path d="M18352 8671c147-181 151-435 148-668 0-90-3-184-6-276v-3c-4-168-23-338-54-505h0c-15-79-37-159-63-235 19-5 39-9 60-13 158-31 319-47 480-47s323 16 480 47c55 11 194 8 272 35 23 6 43 20 55 39 16 32-16 126-39 209h0c3 37 9 74 17 111 14 66 33 133 42 200 15 116 1 234 9 350s41 239 130 315c-526 79-1043 228-1531 441h0z" class="G"/><path d="M19801 7467l-121 12c-402 42-801 127-1187 248v-2l-53-505h0v-92c0-52-2-104-3-156 158-32 320-47 481-47 160 0 322 15 480 47 54 11 193 8 272 35l2 148c2 33 6 67 13 100h0c15 81 56 156 116 212h0z" class="B"/><circle cx="19038" cy="6487" r="1119" class="G"/><path fill="#f75842" d="M18055 10707c-198-704-17-1459 458-2014 105-124 211-251 350-325 165-88 360-91 546-92 165 0 335 0 487 65 204 88 346 277 465 466 127 201 242 418 261 655 11 141-14 284 7 424 26 177 125 336 166 511 22 94 26 192 40 288 21 131 53 262 94 389 299 995 712 1959 1226 2864 151 267 313 531 415 821 46 131 79 272 42 407-63 224-346 355-557 259-45 20-94 31-143 31-6 0-12-1-17-1l-1868 50c-49 1-98 8-146 19-219 57-137 152-160 231-29 97-168 89-265 60 15 141 18 314-164 355-242-62-492-94-742-94-91 0-183 5-272 13-125 11-267 25-360-61-69-64-87-165-99-259-186-1482 196-2966 484-4430 38-198 25-518-33-711l-215 79z"/><path d="M20535 9685c44 127 99 251 114 384 12 106-3 214 4 321 11 118 36 235 73 348 58 220 130 438 214 649 41 95 88 200 55 298-33 99-134 159-163 257-30 103 30 212 108 287 77 76 173 129 245 209 77 88 120 199 175 303 78 136 167 266 267 388l365 474c23 35 53 64 88 85 121 63 248-64 371-121 163-78 354-32 535-19s398-34 462-202c-28-242-98-477-206-694-66-132-146-259-188-401-34-115-40-237-67-354s-75-229-113-343c-270-812-67-1701-154-2553-32-314-128-658-399-822-160-97-353-112-544-121l-86-4-139-7c-201-10-402-17-598 25-275 61-607 275-617 582a3587.6 3587.6 0 0 0 198 1031h0z" class="C"/><path d="M21566 7834c37 204 56 412 56 619v5c5 597 70 1192 134 1784l43 394c8 72 17 148 61 207 43 58 134 89 191 44 35-139 28-285 21-428l-45-913c-15-297-31-593-66-888-28-227-71-455-125-677-11-47-25-92-43-136l-87-4-140-7z" class="B"/><path d="M19590 8090c-185-27-379-40-555 24-168 62-303 190-424 324-82 86-150 185-202 293-103 237-63 510 0 761 172 692 512 1358 1059 1815 166 134 344 257 529 363 242 141 492 272 760 354 74 23 154 42 231 26 76-17 148-78 151-157-439-246-832-565-1222-882-107-82-208-173-300-272-139-155-236-344-371-503-121-143-272-264-363-427-56-112-95-233-112-357-45-253-54-522 47-759 100-236 330-431 587-427 132 2 258 55 379 106l766 323c-10-4 43-137 41-155-7-58-17-59-60-103-74-73-187-125-280-167-210-91-433-152-661-180h0z" class="C"/><path fill="#ffd566" d="M18067 6276c219-49 421-153 587-303l-160 840c158-73 314-157 462-250 22 385-9 777-151 1135-141 357-402 677-753 836 311 52 590-171 867-322 193-105 523 3 734-60 179-53 363-99 524-193 300-175 368-687 429-1028 61-342 6-696-95-1029-206-377-602-612-1032-612-230 0-455 68-647 194-278 184-537 454-750 710-30 36-155 161-114 214 51 64 347-118 397-143-150-286-240-4-298 11z"/><path d="M19326 16057c-243-62-492-94-743-94-90 0-182 4-272 12-124 12-267 26-359-60-70-64-88-166-100-259-185-1482 197-2966 484-4430 39-198 25-518-33-711l-13-47c-53-187-80-382-80-577 0-218 33-435 98-642-188 327-287 698-287 1076 0 127 12 256 34 382l14 46c58 193 72 515 33 711-286 1464-669 2949-484 4430 12 94 31 195 100 259 91 85 235 71 359 61 27 7 54 11 82 11 20 0 41-3 61-7 149-33 174-154 170-275 29-236 230-414 468-414 260 0 471 211 471 471 0 19-1 38-3 57h0z" class="B"/><path fill-opacity=".01" d="M22146 15183c-45 20-93 31-142 31-6 0-12-1-18-1l-1868 50c-49 1-98 8-145 19-220 57-137 152-161 231-29 97-168 89-264 60 9 87 13 184-26 257 85 13 177 1 199-75 23-77-59-174 161-231 47-11 96-18 145-19l1809 79c38-17 63-55 63-97 0-11-2-22-5-32 212 96 494-35 557-259a458.1 458.1 0 0 0 15-104c48 105-157 166-320 91z"/><path d="M19640 8863c160 340 304 694 426 1049 99 287 186 590 153 892s-211 608-502 703c-123 41-255 41-385 44-142 23-288 40-432 48-205 7-410-25-615-9-331 27-645 182-977 182h-16c-35 0-70-7-102-22-61-33-88-104-108-169-46-147-83-317-4-450 96-164 315-197 506-212 428-30 857-51 1286-63 366-11 763-25 1047-256 138-45 283-67 429-67 119 0 238 15 354 45l-1060-1715zm0 0h0 0z" class="G"/><path fill="#f75842" d="M18879 9166c-44 16-82 44-109 81 12-126-4-253-2-380s26-260 106-358c102-126 275-171 437-175 236-7 479 62 652 222 110 104 182 243 204 393 5 41 23 197-20 224-38 23-181-58-228-71-139-41-285-62-431-62-209 0-417 43-609 126h0z"/><path d="M14517 1815c0-117-95-212-212-212s-212 95-212 212c0 116 95 211 212 211s212-95 212-211zm1421 4082c0-116-94-211-211-211s-212 95-212 211c0 117 95 212 212 212s211-95 211-212zm-4022-3871c0-117-95-211-212-211s-212 94-212 211 95 212 212 212 212-95 212-212zm-6170 9648c0-301-243-544-544-544s-545 243-545 544 244 544 545 544 544-243 544-544zm21594-8650c0-117-95-211-212-211-116 0-211 94-211 211s95 212 211 212c117 0 212-95 212-212zm726 2873c0-384-311-695-696-695-384 0-695 311-695 695 0 385 311 696 695 696 385 0 696-311 696-696zm635-1965c0-117-95-212-212-212-116 0-211 95-211 212 0 116 95 211 211 211 117 0 212-95 212-211zm-1875 3871c0-117-95-212-212-212-116 0-211 95-211 212s95 211 211 211c117 0 212-94 212-211zM14093 3508c0-117-94-212-211-212s-212 95-212 212 95 212 212 212 211-95 211-212zM6170 14214c0-117-95-211-212-211s-212 94-212 211 95 212 212 212 212-95 212-212zm-333-4839c0-116-95-211-212-211s-211 95-211 211c0 117 94 212 211 212s212-95 212-212zm11614-7772c0-117-95-212-212-212s-212 95-212 212 95 212 212 212 212-95 212-212zm695 1905c0-117-95-212-211-212-118 0-212 95-212 212s94 212 212 212c116 0 211-95 211-212z" class="C B"/></svg>